#!OML:ASF G:\JayActor3\Patient Classification 1\Patient 1\Session 5\male.ASF
:FULLY-SPECIFIED
:DEGREES
491
root 6.26836 16.6685 -5.71405 654.981 -88.2051 -634.049
lowerback 26.4502 -0.612355 -0.15726
upperback 5.56367 -1.34989 -0.852008
thorax -8.493 -0.819164 -0.384088
lowerneck 0.363075 -0.383533 1.83527
upperneck -4.50926 -0.476094 0.897424
head -1.45112 -0.297632 -0.0216232
rclavicle 3.27995e-015 -1.55052e-014
rhumerus -30.3047 -3.94353 -87.7379
rradius 28.6326
rwrist 0.450344
rhand -20.8151 -7.71804
rfingers 7.12502
rthumb 5.55284 -37.6253
lclavicle 3.27995e-015 -1.55052e-014
lhumerus -32.5568 -0.210667 85.7207
lradius 29.983
lwrist 25.7534
lhand -18.9037 10.7368
lfingers 7.12502
lthumb 7.39807 40.5874
rfemur -61.9301 -0.379379 17.7345
rtibia 73.7314
rfoot -18.79 -5.84749
rtoes -10.772
lfemur -35.6593 2.47644 -28.7957
ltibia 34.4576
lfoot -15.7709 -0.253782
ltoes 3.03407
492
root 6.11879 16.6688 -5.7172 655.147 -87.9191 -634.433
lowerback 26.4845 -0.608313 -0.35817
upperback 5.60862 -1.40874 -0.913505
thorax -8.458 -0.844749 -0.317109
lowerneck 0.36848 -0.407447 1.82681
upperneck -4.51813 -0.507282 0.918558
head -1.45492 -0.313607 -0.013233
rclavicle 3.27995e-015 1.41137e-014
rhumerus -30.3738 -4.02955 -87.6712
rradius 28.5884
rwrist 0.487661
rhand -20.6903 -7.721
rfingers 7.12502
rthumb 5.67333 -37.6251
lclavicle 3.27995e-015 1.41137e-014
lhumerus -32.5615 -0.20707 85.6975
lradius 30.0108
lwrist 25.8281
lhand -18.897 10.7164
lfingers 7.12502
lthumb 7.4046 40.5668
rfemur -62.4841 -0.390986 17.4994
rtibia 72.1175
rfoot -19.093 -6.14889
rtoes -10.6537
lfemur -34.7205 2.50851 -29.0696
ltibia 34.2984
lfoot -15.9978 -0.255148
ltoes 2.7624
493
root 5.9682 16.6708 -5.72091 656.018 -87.6252 -635.518
lowerback 26.5048 -0.613447 -0.542784
upperback 5.6557 -1.47426 -0.971859
thorax -8.4135 -0.873887 -0.254094
lowerneck 0.368385 -0.430213 1.80865
upperneck -4.52767 -0.537245 0.939677
head -1.45793 -0.32881 -0.00325589
rclavicle 3.47873e-015 1.32192e-014
rhumerus -30.4444 -4.10892 -87.6068
rradius 28.5346
rwrist 0.530465
rhand -20.6471 -7.71995
rfingers 7.12502
rthumb 5.71511 -37.6229
lclavicle 3.47873e-015 1.32192e-014
lhumerus -32.5511 -0.203112 85.674
lradius 30.0371
lwrist 25.8866
lhand -18.8967 10.7226
lfingers 7.12502
lthumb 7.40484 40.573
rfemur -62.9448 -0.419497 17.2702
rtibia 70.3379
rfoot -19.3694 -6.48077
rtoes -10.3699
lfemur -33.7527 2.56324 -29.3443
ltibia 34.0723
lfoot -16.1632 -0.315015
ltoes 2.46331
494
root 5.81656 16.6743 -5.72499 657.357 -87.3279 -637.068
lowerback 26.5197 -0.628957 -0.701457
upperback 5.70075 -1.54533 -1.02746
thorax -8.36882 -0.906118 -0.201255
lowerneck 0.365079 -0.452812 1.78274
upperneck -4.53584 -0.567243 0.959468
head -1.45991 -0.343842 0.00759255
rclavicle 1.33186e-014 1.31198e-014
rhumerus -30.5211 -4.17048 -87.5491
rradius 28.4654
rwrist 0.569443
rhand -20.7042 -7.71035
rfingers 7.12502
rthumb 5.65993 -37.6148
lclavicle 1.33186e-014 1.31198e-014
lhumerus -32.5363 -0.198902 85.6506
lradius 30.068
lwrist 25.9161
lhand -18.9054 10.738
lfingers 7.12502
lthumb 7.39647 40.5887
rfemur -63.3122 -0.463786 17.0514
rtibia 68.398
rfoot -19.6089 -6.86101
rtoes -10.0845
lfemur -32.7546 2.62258 -29.6041
ltibia 33.7845
lfoot -16.287 -0.427086
ltoes 2.19028
495
root 5.66364 16.6789 -5.72936 658.93 -87.0304 -638.848
lowerback 26.5191 -0.652868 -0.83658
upperback 5.74947 -1.61983 -1.07801
thorax -8.31233 -0.940573 -0.155584
lowerneck 0.356939 -0.472503 1.74846
upperneck -4.54377 -0.593763 0.975095
head -1.46094 -0.3569 0.0184879
rclavicle 8.74653e-015 8.05078e-015
rhumerus -30.5985 -4.21975 -87.4927
rradius 28.3869
rwrist 0.624601
rhand -20.8553 -7.69063
rfingers 7.12502
rthumb 5.51407 -37.5989
lclavicle 8.74653e-015 8.05078e-015
lhumerus -32.5138 -0.18799 85.6291
lradius 30.1014
lwrist 25.9197
lhand -18.9211 10.7538
lfingers 7.12502
lthumb 7.38133 40.605
rfemur -63.5739 -0.517665 16.8423
rtibia 66.2696
rfoot -19.7872 -7.27485
rtoes -9.85736
lfemur -31.6794 2.68191 -29.8408
ltibia 33.3427
lfoot -16.3322 -0.587551
ltoes 1.935
496
root 5.50954 16.6838 -5.73391 660.617 -86.7376 -640.737
lowerback 26.5054 -0.683193 -0.946374
upperback 5.80023 -1.69464 -1.12303
thorax -8.24728 -0.975753 -0.118597
lowerneck 0.346471 -0.491621 1.72233
upperneck -4.55604 -0.620004 0.975358
head -1.46301 -0.369733 0.0232799
rclavicle 6.36111e-015 3.11098e-014
rhumerus -30.6724 -4.26487 -87.4303
rradius 28.316
rwrist 0.638591
rhand -20.9874 -7.69281
rfingers 7.12502
rthumb 5.38651 -37.6044
lclavicle 6.36111e-015 3.11098e-014
lhumerus -32.49 -0.171379 85.6109
lradius 30.1433
lwrist 25.9025
lhand -18.9511 10.7691
lfingers 7.12502
lthumb 7.3524 40.6213
rfemur -63.7386 -0.574547 16.6425
rtibia 63.9914
rfoot -19.9221 -7.69313
rtoes -9.69852
lfemur -30.5737 2.73218 -30.0455
ltibia 32.841
lfoot -16.3542 -0.786793
ltoes 1.74611
497
root 5.3545 16.7078 -5.73752 662.188 -86.442 -642.506
lowerback 26.4783 -0.715667 -1.04442
upperback 5.8517 -1.7683 -1.16652
thorax -8.17478 -1.01071 -0.0874091
lowerneck 0.337356 -0.509155 1.70122
upperneck -4.57231 -0.64431 0.967076
head -1.46663 -0.381579 0.0245834
rclavicle -2.64384e-014 -8.94531e-015
rhumerus -30.7446 -4.32456 -87.3555
rradius 28.2597
rwrist 0.624127
rhand -21.0344 -7.7337
rfingers 7.12502
rthumb 5.34113 -37.6464
lclavicle -2.64384e-014 -8.94531e-015
lhumerus -32.4707 -0.153622 85.5961
lradius 30.19
lwrist 25.8847
lhand -18.9904 10.7591
lfingers 7.12502
lthumb 7.3144 40.6127
rfemur -63.7094 -0.634624 16.4365
rtibia 61.4872
rfoot -20.0195 -8.0829
rtoes -9.67107
lfemur -29.3983 2.78104 -30.2296
ltibia 32.2302
lfoot -16.3476 -1.01507
ltoes 1.57419
498
root 5.1977 16.7125 -5.74234 663.604 -86.1502 -644.118
lowerback 26.4418 -0.746579 -1.13187
upperback 5.90339 -1.83631 -1.20676
thorax -8.09742 -1.04329 -0.0608584
lowerneck 0.339083 -0.526655 1.69115
upperneck -4.60248 -0.668553 0.945472
head -1.47666 -0.393532 0.0199944
rclavicle 5.46658e-016 -1.33683e-014
rhumerus -30.8138 -4.38463 -87.2712
rradius 28.217
rwrist 0.567542
rhand -20.999 -7.80439
rfingers 7.12502
rthumb 5.37531 -37.7162
lclavicle 5.46658e-016 -1.33683e-014
lhumerus -32.456 -0.129555 85.5855
lradius 30.2326
lwrist 25.8704
lhand -19.0397 10.7174
lfingers 7.12502
lthumb 7.26684 40.5727
rfemur -63.6777 -0.673172 16.2261
rtibia 58.9383
rfoot -20.0518 -8.44399
rtoes -9.8639
lfemur -28.2275 2.8318 -30.3966
ltibia 31.612
lfoot -16.3434 -1.25586
ltoes 1.40894
